<svg width="329" height="347" viewBox="0 0 329 347" fill="none" xmlns="http://www.w3.org/2000/svg">
<g opacity="0.3">
<mask id="mask0_0_14" style="mask-type:alpha" maskUnits="userSpaceOnUse" x="0" y="0" width="330" height="348">
<line x1="124.39" y1="0.22784" x2="0.445006" y2="242.347" stroke="black"/>
<line x1="133.292" y1="4.78466" x2="9.34643" y2="246.904" stroke="black"/>
<line x1="142.193" y1="9.34149" x2="18.2479" y2="251.46" stroke="black"/>
<line x1="151.094" y1="13.8983" x2="27.1493" y2="256.017" stroke="black"/>
<line x1="159.996" y1="18.4551" x2="36.0508" y2="260.574" stroke="black"/>
<line x1="168.897" y1="23.0119" x2="44.9522" y2="265.131" stroke="black"/>
<line x1="177.799" y1="27.5687" x2="53.8536" y2="269.688" stroke="black"/>
<line x1="186.7" y1="32.1255" x2="62.7551" y2="274.244" stroke="black"/>
<line x1="195.602" y1="36.6823" x2="71.6565" y2="278.801" stroke="black"/>
<line x1="204.503" y1="41.2391" x2="80.5579" y2="283.358" stroke="black"/>
<line x1="213.404" y1="45.7959" x2="89.4594" y2="287.915" stroke="black"/>
<line x1="222.306" y1="50.3527" x2="98.3608" y2="292.472" stroke="black"/>
<line x1="231.207" y1="54.9095" x2="107.262" y2="297.029" stroke="black"/>
<line x1="240.109" y1="59.4663" x2="116.164" y2="301.585" stroke="black"/>
<line x1="249.01" y1="64.0231" x2="125.065" y2="306.142" stroke="black"/>
<line x1="257.912" y1="68.58" x2="133.967" y2="310.699" stroke="black"/>
<line x1="266.813" y1="73.1367" x2="142.868" y2="315.256" stroke="black"/>
<line x1="275.715" y1="77.6935" x2="151.769" y2="319.813" stroke="black"/>
<line x1="284.616" y1="82.2504" x2="160.671" y2="324.369" stroke="black"/>
<line x1="293.517" y1="86.8072" x2="169.572" y2="328.926" stroke="black"/>
<line x1="302.419" y1="91.3639" x2="178.474" y2="333.483" stroke="black"/>
<line x1="311.32" y1="95.9208" x2="187.375" y2="338.04" stroke="black"/>
<line x1="320.222" y1="100.478" x2="196.277" y2="342.597" stroke="black"/>
<line x1="329.123" y1="105.034" x2="205.178" y2="347.153" stroke="black"/>
</mask>
<g mask="url(#mask0_0_14)">
<circle cx="164.339" cy="173.463" r="68" transform="rotate(27.1087 164.339 173.463)" fill="#1F98F0"/>
</g>
</g>
</svg>
