<svg width="107" height="29" viewBox="0 0 107 29" fill="none" xmlns="http://www.w3.org/2000/svg">
<path d="M19.3555 0.623148V23H15.1773V13.2198H4.66973V23H0.491475V0.623148H4.66973V10.2486H15.1773V0.623148H19.3555ZM37.1128 7.12265V23H34.7761C34.2706 23 33.9508 22.7679 33.8166 22.3036L33.5536 21.0347C32.9036 21.6949 32.1866 22.2314 31.4025 22.6441C30.6185 23.0464 29.6951 23.2476 28.6325 23.2476C27.7659 23.2476 26.9973 23.1032 26.3267 22.8143C25.6665 22.5151 25.1094 22.0973 24.6554 21.5608C24.2015 21.0244 23.8559 20.3899 23.6186 19.6574C23.3917 18.9146 23.2782 18.0996 23.2782 17.2123V7.12265H27.1005V17.2123C27.1005 18.1821 27.3223 18.9352 27.7659 19.4717C28.2199 19.9978 28.8956 20.2609 29.7931 20.2609C30.4534 20.2609 31.0724 20.1165 31.6501 19.8276C32.2279 19.5284 32.7747 19.1209 33.2905 18.6051V7.12265H37.1128ZM44.4775 9.0725C44.7973 8.75268 45.1326 8.45866 45.4833 8.19042C45.8444 7.91187 46.221 7.67975 46.613 7.49405C47.0154 7.29803 47.4435 7.14844 47.8974 7.04527C48.3514 6.93179 48.8466 6.87505 49.383 6.87505C50.2496 6.87505 51.0182 7.02464 51.6888 7.32382C52.3594 7.61269 52.9165 8.02536 53.3601 8.56182C53.8141 9.08797 54.1545 9.72245 54.3815 10.4652C54.6188 11.1977 54.7374 12.0076 54.7374 12.8948V23H50.9151V12.8948C50.9151 11.9251 50.6933 11.1771 50.2496 10.6509C49.806 10.1145 49.1303 9.84625 48.2224 9.84625C47.5622 9.84625 46.9432 9.99584 46.3654 10.295C45.7877 10.5942 45.2409 11.0017 44.7251 11.5175V23H40.9027V7.12265H43.2395C43.7347 7.12265 44.0596 7.35477 44.2144 7.81902L44.4775 9.0725ZM64.1757 14.6744C64.6503 14.6744 65.0629 14.6125 65.4137 14.4887C65.7645 14.3546 66.0533 14.1741 66.2803 13.9471C66.5176 13.7202 66.693 13.4468 66.8064 13.1269C66.9302 12.8071 66.9921 12.4564 66.9921 12.0746C66.9921 11.2906 66.7549 10.6716 66.2803 10.2176C65.816 9.7534 65.1145 9.52127 64.1757 9.52127C63.2369 9.52127 62.5302 9.7534 62.0556 10.2176C61.5914 10.6716 61.3592 11.2906 61.3592 12.0746C61.3592 12.446 61.416 12.7917 61.5295 13.1115C61.6533 13.4313 61.8287 13.7098 62.0556 13.9471C62.2929 14.1741 62.5869 14.3546 62.9377 14.4887C63.2988 14.6125 63.7114 14.6744 64.1757 14.6744ZM68.4932 23.7119C68.4932 23.4024 68.4004 23.1496 68.2147 22.9536C68.029 22.7576 67.7762 22.608 67.4564 22.5048C67.1366 22.3913 66.76 22.3088 66.3267 22.2572C65.9037 22.2056 65.4498 22.1695 64.9649 22.1489C64.4904 22.1179 63.9952 22.0921 63.4793 22.0715C62.9738 22.0509 62.4786 22.0096 61.9937 21.9477C61.5707 22.185 61.2251 22.4635 60.9569 22.7833C60.699 23.1032 60.57 23.4746 60.57 23.8976C60.57 24.1761 60.6371 24.434 60.7712 24.6713C60.9156 24.9189 61.1374 25.1304 61.4366 25.3058C61.7461 25.4812 62.1433 25.6153 62.6282 25.7081C63.1131 25.8113 63.7063 25.8629 64.4078 25.8629C65.1197 25.8629 65.7335 25.8061 66.2493 25.6927C66.7652 25.5895 67.1882 25.4399 67.5183 25.2439C67.8587 25.0582 68.1063 24.8312 68.2611 24.563C68.4158 24.3051 68.4932 24.0214 68.4932 23.7119ZM72.3001 7.66427V9.08797C72.3001 9.54191 72.0267 9.82046 71.4799 9.92362L70.0562 10.1867C70.2728 10.7335 70.3812 11.3318 70.3812 11.9818C70.3812 12.7659 70.2213 13.4777 69.9014 14.1173C69.5919 14.7467 69.1586 15.2831 68.6015 15.7267C68.0444 16.1704 67.3842 16.516 66.6207 16.7636C65.8676 17.0009 65.0526 17.1195 64.1757 17.1195C63.8662 17.1195 63.567 17.104 63.2781 17.0731C62.9893 17.0421 62.7056 17.0009 62.427 16.9493C61.9318 17.2485 61.6842 17.5837 61.6842 17.9551C61.6842 18.275 61.8287 18.5122 62.1175 18.667C62.4167 18.8114 62.8087 18.9146 63.2936 18.9765C63.7785 19.0384 64.3304 19.0797 64.9494 19.1003C65.5684 19.1106 66.2029 19.1416 66.8529 19.1931C67.5028 19.2447 68.1373 19.3376 68.7563 19.4717C69.3753 19.5955 69.9272 19.7967 70.4121 20.0752C70.897 20.3538 71.2839 20.7355 71.5727 21.2204C71.8719 21.6949 72.0215 22.3088 72.0215 23.0619C72.0215 23.7634 71.8461 24.4443 71.4954 25.1046C71.1549 25.7649 70.6546 26.3529 69.9943 26.8688C69.3443 27.3846 68.5396 27.7973 67.5802 28.1068C66.6311 28.4266 65.5478 28.5865 64.3304 28.5865C63.1337 28.5865 62.0917 28.4678 61.2045 28.2306C60.3173 28.0036 59.5796 27.6941 58.9916 27.3021C58.4035 26.9203 57.9651 26.4767 57.6762 25.9712C57.3873 25.4657 57.2429 24.9395 57.2429 24.3928C57.2429 23.65 57.4647 23.031 57.9083 22.5357C58.3623 22.0302 58.9813 21.6279 59.7653 21.3287C59.3423 21.112 59.007 20.8232 58.7594 20.4621C58.5118 20.101 58.388 19.6264 58.388 19.0384C58.388 18.8011 58.4293 18.5587 58.5118 18.3111C58.6047 18.0532 58.7337 17.8004 58.8987 17.5528C59.0741 17.3052 59.2908 17.0731 59.5487 16.8564C59.8066 16.6295 60.1109 16.4283 60.4617 16.2529C59.657 15.8196 59.0225 15.2419 58.5583 14.5197C58.1043 13.7975 57.8774 12.9516 57.8774 11.9818C57.8774 11.1977 58.0321 10.491 58.3416 9.86172C58.6614 9.22209 59.0999 8.68047 59.657 8.23685C60.2244 7.78292 60.8898 7.43731 61.6533 7.20002C62.427 6.96274 63.2678 6.8441 64.1757 6.8441C64.8566 6.8441 65.4962 6.91632 66.0946 7.06075C66.693 7.19486 67.2397 7.39604 67.7349 7.66427H72.3001ZM78.3298 9.8772C78.825 8.92807 79.413 8.18527 80.0939 7.6488C80.7748 7.10202 81.5795 6.82862 82.508 6.82862C83.2405 6.82862 83.8285 6.98853 84.2722 7.30835L84.0246 10.1712C83.973 10.3569 83.8956 10.491 83.7924 10.5736C83.6996 10.6458 83.5706 10.6819 83.4056 10.6819C83.2508 10.6819 83.0187 10.6561 82.7092 10.6045C82.41 10.5529 82.116 10.5271 81.8271 10.5271C81.4041 10.5271 81.0276 10.589 80.6974 10.7128C80.3673 10.8366 80.0681 11.0172 79.7999 11.2545C79.542 11.4814 79.3098 11.76 79.1035 12.0901C78.9075 12.4203 78.7218 12.7968 78.5464 13.2198V23H74.7241V7.12265H76.968C77.36 7.12265 77.6334 7.19487 77.7881 7.3393C77.9429 7.47342 78.0461 7.72102 78.0976 8.0821L78.3298 9.8772ZM100.693 7.12265L92.0421 27.364C91.9286 27.6322 91.779 27.8334 91.5933 27.9675C91.4179 28.1119 91.1445 28.1841 90.7731 28.1841H87.9257L90.8969 21.8084L84.4748 7.12265H87.8329C88.132 7.12265 88.3642 7.19487 88.5292 7.3393C88.7046 7.48373 88.8336 7.6488 88.9161 7.8345L92.2897 16.0672C92.4031 16.3457 92.496 16.6243 92.5682 16.9028C92.6507 17.1814 92.7281 17.4651 92.8003 17.754C92.8932 17.4651 92.986 17.1814 93.0789 16.9028C93.1717 16.614 93.2749 16.3303 93.3884 16.0517L96.5762 7.8345C96.6588 7.62817 96.7929 7.45794 96.9786 7.32382C97.1746 7.18971 97.3913 7.12265 97.6285 7.12265H100.693Z" fill="white"/>
<path d="M102.034 20.8954C102.034 20.5756 102.091 20.2712 102.204 19.9824C102.328 19.6935 102.493 19.4459 102.699 19.2396C102.906 19.0332 103.153 18.8682 103.442 18.7444C103.731 18.6206 104.041 18.5587 104.371 18.5587C104.701 18.5587 105.005 18.6206 105.284 18.7444C105.573 18.8682 105.82 19.0332 106.027 19.2396C106.243 19.4459 106.413 19.6935 106.537 19.9824C106.661 20.2712 106.723 20.5756 106.723 20.8954C106.723 21.2255 106.661 21.535 106.537 21.8239C106.413 22.1024 106.243 22.3449 106.027 22.5512C105.82 22.7576 105.573 22.9175 105.284 23.031C105.005 23.1548 104.701 23.2167 104.371 23.2167C104.041 23.2167 103.731 23.1548 103.442 23.031C103.153 22.9175 102.906 22.7576 102.699 22.5512C102.493 22.3449 102.328 22.1024 102.204 21.8239C102.091 21.535 102.034 21.2255 102.034 20.8954Z" fill="#1F98F0"/>
</svg>
